<svg id="Calque_1" data-name="Calque 1" xmlns="http://www.w3.org/2000/svg" xmlns:xlink="http://www.w3.org/1999/xlink" viewBox="0 0 698 698"><defs><style>.cls-1{opacity:0.5;}.cls-2{fill:url(#Dégradé_sans_nom);}.cls-3{fill:#f5f5f5;}.cls-4{fill:#f3c108;}.cls-5{fill:#333;}.cls-6{opacity:0.1;isolation:isolate;}.cls-7{fill:#fdb797;}</style><linearGradient id="Dégradé_sans_nom" x1="349" y1="-0.11" x2="349" y2="697.89" gradientTransform="matrix(1, 0, 0, -1, 0, 697.89)" gradientUnits="userSpaceOnUse"><stop offset="0" stop-color="gray" stop-opacity="0.25"/><stop offset="0.54" stop-color="gray" stop-opacity="0.12"/><stop offset="1" stop-color="gray" stop-opacity="0.1"/></linearGradient></defs><title>user</title><g class="cls-1"><circle class="cls-2" cx="349" cy="349" r="349"/></g><circle class="cls-3" cx="349.68" cy="346.77" r="341.64"/><path class="cls-4" d="M477.29,560.84s47.91,3.92,60.5,72.72a341.89,341.89,0,0,1-384-5.72c14.12-63.29,59.33-67,59.33-67Z" transform="translate(0 0)"/><circle class="cls-5" cx="346.37" cy="339.57" r="164.9"/><path class="cls-6" d="M293.15,476.92H398.81v84.53A52.83,52.83,0,0,1,346,614.28h0a52.83,52.83,0,0,1-52.83-52.83h0V476.92h0Z" transform="translate(0 0)"/><path class="cls-7" d="M296.5,473h99a3.35,3.35,0,0,1,3.35,3.35h0v81.18A52.83,52.83,0,0,1,346,610.37h0a52.83,52.83,0,0,1-52.83-52.83h0V476.35A3.35,3.35,0,0,1,296.5,473Z" transform="translate(0 0)"/><path class="cls-6" d="M293.34,516.82a152.06,152.06,0,0,0,105.66.29v-13H293.34Z" transform="translate(0 0)"/><circle class="cls-7" cx="346.37" cy="372.44" r="151.45"/><path class="cls-6" d="M238.49,234.68S302.32,364.24,482.37,289l-41.92-65.73L366.14,196.6Z" transform="translate(0 0)"/><path class="cls-5" d="M238.49,232.78s63.83,129.56,243.88,54.3l-41.92-65.73-74.31-26.67Z" transform="translate(0 0)"/><path class="cls-5" d="M237.93,224a87.43,87.43,0,0,1,21.69-35.27c29.79-29.45,78.63-35.66,103.68-69.24,6,9.32,1.36,23.65-9,27.65,24-.16,51.81-2.26,65.38-22a44.88,44.88,0,0,1-7.57,47.4c21.27,1,44,15.4,45.34,36.65.92,14.16-8,27.56-19.59,35.68s-25.71,11.85-39.56,14.9C357.86,268.7,211.54,306.07,237.93,224Z" transform="translate(0 0)"/><ellipse class="cls-7" cx="194.86" cy="372.3" rx="14.09" ry="26.42"/><ellipse class="cls-7" cx="497.8" cy="372.3" rx="14.09" ry="26.42"/></svg>